<?xml version="1.0" encoding="UTF-8"?>
<svg width="80" height="80" viewBox="0 0 80 80" fill="none" xmlns="http://www.w3.org/2000/svg">
  <!-- Telegram Logo Background -->
  <circle cx="40" cy="40" r="36" fill="#0088CC"/>
  
  <!-- Message Bubble -->
  <path d="M27 36C27 32.6863 29.6863 30 33 30H47C50.3137 30 53 32.6863 53 36V47C53 50.3137 50.3137 53 47 53H36.5981L28.2929 61.2929C27.9024 61.6834 27.25 61.4142 27.25 60.8787V53H33C29.6863 53 27 50.3137 27 47V36Z" fill="white"/>
  
  <!-- /command symbol -->
  <path d="M36 38.5L32 38.5C31.4477 38.5 31 38.0523 31 37.5C31 36.9477 31.4477 36.5 32 36.5L42 36.5C42.5523 36.5 43 36.9477 43 37.5C43 38.0523 42.5523 38.5 42 38.5L38 38.5L38 46.5C38 47.0523 37.5523 47.5 37 47.5C36.4477 47.5 36 47.0523 36 46.5L36 38.5Z" fill="#0088CC"/>
  
  <!-- Settings Gear -->
  <circle cx="47" cy="47" r="7" fill="#0088CC"/>
  <path d="M47 41C44.2386 41 42 43.2386 42 46C42 48.7614 44.2386 51 47 51C49.7614 51 52 48.7614 52 46C52 43.2386 49.7614 41 47 41ZM40 46C40 42.134 43.134 39 47 39C50.866 39 54 42.134 54 46C54 49.866 50.866 53 47 53C43.134 53 40 49.866 40 46Z" fill="white"/>
  <path d="M49.6 45.27C49.8937 45.07 50 44.7225 50 44.33C50 43.915 49.8665 43.52 49.536 43.2975C49.218 43.0975 48.9 43 48.6 43H45.4C45.1 43 44.782 43.0975 44.464 43.2975C44.1335 43.52 44 43.915 44 44.33C44 44.7225 44.1063 45.07 44.4 45.27C44.6937 45.47 45 45.5 45.3 45.5H48.7C49 45.5 49.3063 45.47 49.6 45.27ZM49.6 47.73C49.3063 47.53 49 47.5 48.7 47.5H45.3C45 47.5 44.6937 47.53 44.4 47.73C44.1063 47.93 44 48.2775 44 48.67C44 49.085 44.1335 49.48 44.464 49.7025C44.782 49.9025 45.1 50 45.4 50H48.6C48.9 50 49.218 49.9025 49.536 49.7025C49.8665 49.48 50 49.085 50 48.67C50 48.2775 49.8937 47.93 49.6 47.73Z" fill="white"/>
</svg>